# xmcd CD database file
#
# Track frame offsets:
#	150
#	21542
#	45814
#
# Disc length: 888 seconds
#
# Revision: 1
# Processed by: cddbd v1.5.1PL0 Copyright (c) Steve Scherf et al.
# Submitted via: CDex 1.50Beta7
#
DISCID=1a037603
DTITLE=Various Artist - マーメイドメロディー ぴちぴちピッチピュア 挿入歌 MOTHER SYMPHONY
DYEAR=2004
DGENRE=Anime
TTITLE0=中田あすみ(七海るちあ)/MOTHER SYMPHONY
TTITLE1=寺門仁美(宝生波音)/水色の旋律
TTITLE2=浅野まゆみ(洞院リナ)/Piece of Love
EXTD=YEAR: 2004
EXTT0=
EXTT1=
EXTT2=
PLAYORDER=
